<?xml version="1.0" standalone="no"?>
<!DOCTYPE svg PUBLIC "-//W3C//DTD SVG 20010904//EN"
 "http://www.w3.org/TR/2001/REC-SVG-20010904/DTD/svg10.dtd">
<svg version="1.0" xmlns="http://www.w3.org/2000/svg"
 width="400.000000pt" height="400.000000pt" viewBox="0 0 400.000000 400.000000"
 preserveAspectRatio="xMidYMid meet">
<metadata>
Created by potrace 1.14, written by Peter Selinger 2001-2017
</metadata>
<g transform="translate(0.000000,400.000000) scale(0.100000,-0.100000)"
fill="#000000" stroke="none">
<path d="M1845 3400 c3 -5 -1 -10 -10 -10 -54 0 -259 -122 -315 -188 -77 -89
-230 -357 -208 -364 14 -5 -33 -88 -57 -100 -29 -15 -55 -50 -55 -74 0 -13 -8
-24 -20 -27 -11 -3 -20 -10 -20 -17 0 -7 9 -14 20 -17 23 -6 26 -33 8 -66 -7
-12 -13 -28 -14 -36 -5 -27 -27 -71 -36 -71 -5 0 -7 4 -4 8 2 4 -5 9 -17 9
-20 2 -19 0 6 -15 33 -20 36 -36 5 -28 -13 3 -34 9 -48 13 l-25 7 29 -35 c16
-19 38 -34 50 -34 12 0 21 -6 21 -15 0 -12 -11 -15 -50 -13 -50 2 -50 1 -27
-17 29 -24 28 -28 -5 -22 -26 5 -27 4 -11 -11 15 -16 44 -23 104 -26 26 -1 26
-42 0 -51 -10 -3 -17 -9 -17 -13 5 -45 -1 -68 -16 -65 -22 4 -38 -51 -17 -59
8 -3 14 -9 14 -14 0 -6 -8 -5 -19 1 -27 14 -31 13 -31 -7 0 -9 12 -30 28 -46
26 -29 26 -30 5 -24 -13 3 -23 2 -23 -1 0 -12 47 -52 61 -52 7 0 9 -3 6 -7 -4
-3 3 -13 16 -22 l22 -16 -27 -5 c-27 -5 -27 -6 -13 -33 9 -18 10 -25 2 -21 -7
4 15 -19 48 -52 33 -32 63 -60 67 -60 5 -1 13 -2 18 -3 6 0 8 -12 4 -27 -5
-19 -4 -25 5 -20 6 4 12 1 12 -8 1 -9 2 -19 4 -23 1 -5 5 -26 9 -48 4 -22 11
-47 16 -56 5 -9 12 -34 16 -55 3 -22 11 -47 16 -56 4 -10 11 -60 14 -113 7
-107 17 -88 -96 -177 -46 -37 -55 -50 -58 -81 -2 -20 5 -53 14 -73 22 -47 127
-160 168 -182 35 -18 81 -29 56 -13 -8 5 -18 7 -22 5 -4 -3 -8 -2 -9 3 0 4 -3
20 -5 36 -3 15 0 27 6 27 5 0 10 -5 10 -11 0 -5 5 -7 10 -4 8 5 7 11 -1 21 -9
11 -8 15 5 20 11 4 14 13 11 25 -5 13 2 24 22 36 15 10 29 25 31 33 2 8 10 20
18 26 7 6 14 19 14 28 0 20 14 21 29 2 7 -8 21 -12 31 -9 11 3 20 1 20 -4 0
-12 45 -33 70 -33 11 0 20 5 20 10 0 6 -6 10 -14 10 -7 0 -19 7 -26 15 -14 17
0 21 16 5 11 -11 145 -52 151 -47 3 3 -8 9 -67 36 -23 11 -23 11 10 7 19 -3
54 -1 78 3 33 7 42 5 42 -5 0 -11 18 -14 76 -14 54 0 73 -3 68 -11 -5 -9 1
-10 20 -5 18 4 26 2 26 -6 0 -8 4 -7 10 3 7 11 22 15 58 13 39 -3 54 1 73 19
13 12 33 20 45 19 12 -2 25 2 29 8 3 5 21 16 39 24 35 15 125 76 111 76 -5 0
12 20 36 45 24 25 51 44 59 44 10 -1 9 -3 -3 -6 -11 -3 -16 -11 -13 -21 12
-36 22 -109 19 -137 -7 -67 -2 -106 12 -103 6 2 9 6 7 10 -1 5 3 8 9 8 5 0 7
5 4 10 -3 6 -1 10 4 10 6 0 11 -2 11 -4 0 -13 -44 -104 -58 -122 -9 -11 -3 -5
15 14 37 39 62 89 70 138 5 30 1 40 -27 69 -35 36 -35 37 -26 160 5 63 9 81
31 130 8 17 22 51 31 78 9 26 22 47 28 46 33 -4 39 1 20 17 -14 12 -15 14 -3
11 9 -3 26 1 37 9 18 12 20 19 12 40 -12 31 -6 44 22 44 12 0 19 3 15 6 -3 3
-2 17 3 30 8 19 6 22 -8 17 -9 -3 -24 -12 -32 -19 -13 -11 -16 -10 -17 7 -1
11 4 19 10 18 7 -1 25 3 40 9 36 15 40 15 34 -2 -3 -8 0 -13 8 -12 18 3 57 51
48 60 -3 3 -1 6 5 6 16 0 24 53 13 84 -10 25 -10 26 10 15 17 -9 23 -8 30 2
12 20 11 37 -3 42 -10 4 -9 6 1 6 11 1 11 4 1 16 -10 12 -9 15 6 15 11 1 30 7
43 14 l23 13 -22 6 c-20 5 -21 8 -10 21 10 13 10 16 -1 16 -8 0 -5 6 7 15 16
12 16 14 3 15 -9 0 -27 9 -40 20 l-24 19 22 1 c19 0 21 3 14 23 -10 28 -2 97
11 97 6 0 8 6 5 13 -3 8 -1 20 4 28 6 10 9 4 10 -21 1 -34 1 -34 14 14 8 27
16 65 19 85 3 20 10 51 15 69 6 18 7 40 4 48 -6 17 8 18 26 2 10 -11 12 -9 9
7 -2 11 -10 19 -17 17 -7 -1 -11 5 -10 15 5 32 -12 134 -29 171 -8 20 -17 48
-19 62 -3 14 -8 27 -14 28 -5 2 -9 11 -9 21 0 9 -6 23 -12 30 -11 11 -10 13 0
7 7 -4 22 -25 33 -48 11 -22 23 -37 26 -34 8 7 -10 43 -55 112 -18 29 -34 58
-36 66 -1 8 -19 30 -39 48 -21 18 -36 38 -34 43 4 14 -146 159 -181 173 -58
25 -109 51 -152 79 -8 5 -29 10 -46 11 -18 1 -60 14 -95 29 -35 14 -100 39
-144 54 -44 16 -100 38 -125 51 -25 13 -70 29 -100 36 -66 16 -174 18 -165 4z
m103 -512 c8 -8 12 -8 12 -1 0 6 11 8 25 5 14 -2 25 -8 25 -12 0 -4 25 -10 56
-14 33 -4 67 -15 82 -27 18 -14 28 -16 33 -8 4 6 12 8 19 4 7 -4 15 -3 19 4 4
6 18 10 32 10 13 -1 58 -2 99 -3 41 -1 90 -5 108 -10 27 -6 31 -10 21 -22 -6
-8 -9 -17 -5 -21 3 -3 6 -1 6 7 0 10 3 10 15 0 9 -7 13 -15 10 -18 -3 -3 -1
-10 4 -16 5 -6 12 -26 16 -45 7 -33 6 -34 -9 -18 -10 9 -22 17 -27 17 -6 0 -3
-7 5 -16 23 -23 38 -53 31 -64 -3 -5 -2 -17 3 -27 9 -15 11 -14 23 5 16 26 29
29 29 7 0 -8 5 -25 12 -38 26 -50 28 -58 23 -67 -4 -6 1 -10 9 -10 9 0 16 7
16 16 0 8 4 13 9 9 6 -3 9 -13 9 -23 -1 -9 1 -29 5 -43 5 -19 3 -29 -7 -32
-17 -7 -29 40 -12 47 6 2 3 5 -7 5 -14 1 -17 -4 -12 -19 4 -11 2 -20 -4 -20
-6 0 -11 -9 -11 -20 0 -11 5 -20 10 -20 6 0 10 -9 10 -20 0 -11 6 -29 12 -40
10 -15 10 -22 0 -32 -9 -9 -12 -9 -12 4 0 11 -8 16 -20 15 -15 -1 -18 -6 -14
-20 5 -16 2 -17 -33 -11 -21 4 -41 11 -44 17 -4 6 -27 7 -57 3 -28 -3 -53 -2
-56 3 -8 12 -117 6 -142 -7 -10 -6 -31 -13 -46 -16 -20 -5 -29 -16 -42 -52 -8
-25 -13 -58 -9 -74 5 -25 8 -28 24 -19 12 6 19 6 19 0 0 -5 -6 -12 -12 -15 -7
-3 0 -4 17 0 29 5 29 5 12 -14 -15 -16 -15 -20 -4 -25 8 -3 21 0 28 6 11 10
11 9 0 -5 -18 -24 -6 -52 19 -45 11 3 22 1 25 -3 7 -11 65 6 84 25 13 13 12
15 -10 24 -21 9 -20 10 18 10 33 1 43 5 48 21 8 25 27 27 24 3 -4 -27 20 -65
37 -59 8 3 14 2 14 -2 0 -4 16 -8 35 -9 25 -2 35 1 35 12 0 16 61 83 70 75 11
-10 11 62 -1 76 -17 20 5 17 24 -3 10 -12 17 -47 21 -108 3 -49 7 -99 10 -110
3 -11 7 -48 9 -82 4 -53 2 -63 -12 -63 -9 0 -12 -3 -6 -8 6 -4 11 -16 13 -27
3 -20 2 -20 -13 -1 -15 19 -15 19 -15 -2 0 -12 5 -22 12 -22 9 0 9 -3 0 -12
-7 -7 -12 -22 -12 -35 0 -13 -4 -23 -9 -23 -5 0 -7 -10 -4 -22 3 -17 2 -19 -5
-9 -8 11 -12 10 -20 -6 -8 -14 -7 -27 3 -47 8 -14 10 -24 5 -21 -6 4 -11 3
-11 -2 -7 -50 -6 -69 4 -75 8 -5 4 -8 -10 -8 -17 0 -23 -6 -23 -22 0 -13 -4
-30 -9 -37 -6 -9 -6 -22 1 -34 7 -14 7 -18 -1 -12 -18 10 -42 -15 -36 -36 4
-13 1 -19 -8 -19 -8 0 -27 -17 -43 -37 -15 -21 -32 -41 -37 -44 -5 -4 -9 -19
-9 -33 0 -15 -4 -29 -9 -32 -5 -3 -9 1 -9 9 0 8 -9 17 -20 20 -15 4 -20 0 -20
-16 -1 -20 -2 -20 -11 -4 -5 9 -7 22 -4 27 3 6 1 10 -4 10 -6 0 -11 -7 -11
-15 0 -8 -4 -15 -10 -15 -5 0 -10 7 -10 15 0 18 -17 20 -23 3 -6 -18 -17 -5
-23 26 -2 14 0 26 6 26 5 0 8 10 6 23 -3 12 -5 27 -5 33 -1 7 -10 14 -22 17
-28 7 -44 -32 -20 -50 9 -7 12 -13 6 -13 -5 -1 -18 -3 -27 -5 -10 -2 -18 1
-18 6 0 15 -17 10 -24 -7 -4 -9 -1 -23 5 -30 8 -10 8 -14 0 -14 -6 0 -11 -9
-11 -21 0 -18 -2 -19 -15 -5 -8 8 -15 19 -15 25 0 6 -5 11 -11 11 -5 0 -7 -5
-4 -10 3 -6 1 -10 -4 -10 -6 0 -11 5 -11 11 0 7 -9 9 -22 6 -13 -3 -31 0 -41
8 -11 7 -26 11 -35 8 -12 -5 -14 -2 -8 13 4 10 12 40 17 67 6 26 14 45 18 43
4 -3 13 0 21 5 12 7 11 10 -7 15 -45 12 -18 31 80 53 39 9 53 9 77 -4 16 -8
32 -19 35 -25 10 -17 25 -11 18 7 -5 12 -2 15 9 10 10 -3 18 1 22 11 3 9 11
24 17 33 18 24 3 66 -29 82 -15 7 -26 19 -25 25 2 7 -4 12 -13 12 -8 0 -12 -4
-9 -10 3 -5 2 -10 -4 -10 -5 0 -13 5 -16 10 -4 6 -10 8 -15 5 -5 -3 -20 0 -32
7 -13 7 -26 11 -30 10 -5 -1 -8 3 -8 8 0 6 5 10 10 10 6 0 10 7 10 15 0 8 -5
15 -10 15 -6 0 -3 11 6 25 9 15 13 25 8 23 -5 -1 -26 6 -47 16 -34 17 -36 20
-20 32 10 7 13 14 6 14 -6 0 -18 -7 -27 -15 -16 -17 -56 -20 -56 -5 0 5 -12
16 -27 24 -16 8 -22 15 -15 16 9 0 10 5 3 19 -9 15 -6 22 12 34 20 13 20 16 7
33 -9 10 -10 15 -2 10 6 -4 12 -2 12 3 0 6 -3 11 -7 11 -5 0 -9 66 -11 146 -2
80 -7 156 -12 168 -8 22 -30 47 -77 86 -38 33 -115 52 -195 50 -38 -1 -47 2
-42 13 4 11 -1 13 -18 10 -13 -2 -30 1 -38 6 -13 9 -13 14 -2 31 7 11 10 25 7
29 -3 5 4 7 15 4 12 -3 22 1 26 11 3 9 12 16 18 16 7 0 18 18 25 39 8 28 19
42 39 49 15 6 20 11 11 11 -24 1 -31 28 -12 46 9 9 17 30 19 48 2 17 8 33 12
36 4 3 18 20 31 36 12 17 28 31 34 31 7 1 22 2 35 3 13 1 22 7 22 17 0 11 -6
15 -20 11 -26 -7 -25 0 3 24 26 22 29 23 45 7z m-148 -589 c9 -6 -10 -8 -52
-7 -68 1 -92 13 -40 21 31 4 70 -2 92 -14z m704 -66 c18 -12 -23 -23 -49 -13
-14 5 -38 10 -53 10 -22 0 -24 2 -12 10 14 10 95 4 114 -7z m-658 -42 c-12 -1
-24 -8 -28 -15 -14 -20 -27 15 -16 40 l11 23 27 -22 c25 -21 26 -22 6 -26z
m-346 0 c0 -16 -6 -34 -14 -40 -12 -10 -16 -8 -21 11 -5 14 -3 24 4 26 9 3 9
7 0 18 -9 11 -7 14 10 14 16 0 21 -6 21 -29z m1100 -17 c0 -8 5 -14 10 -14 6
0 10 -4 10 -10 0 -16 -38 -12 -59 7 -24 20 -21 28 13 29 16 1 26 -3 26 -12z
m-823 -9 c0 -8 -8 -15 -18 -15 -12 0 -16 5 -13 15 4 8 12 15 18 15 7 0 13 -7
13 -15z m543 -7 c0 -16 -3 -19 -11 -11 -6 6 -8 16 -5 22 11 17 16 13 16 -11z
m-380 -2 c0 -3 -4 -8 -10 -11 -5 -3 -10 -1 -10 4 0 6 5 11 10 11 6 0 10 -2 10
-4z m-260 -18 c0 -5 15 -8 33 -8 43 0 138 -28 156 -45 17 -17 17 -71 -1 -92
-8 -10 -9 -18 -3 -20 36 -12 37 -20 11 -61 -14 -23 -26 -50 -26 -60 0 -10 -5
-23 -11 -29 -6 -6 -11 -30 -12 -54 -2 -42 -4 -44 -30 -41 -38 4 -94 -15 -133
-44 -17 -13 -34 -21 -37 -17 -3 3 -6 -18 -5 -45 0 -54 16 -79 43 -68 28 10 15
-13 -31 -58 -49 -49 -59 -50 -76 -8 -9 22 -12 24 -15 10 -3 -10 -8 -18 -13
-18 -4 0 -6 10 -2 22 4 17 2 20 -11 15 -10 -4 -17 -2 -17 3 0 6 9 10 21 10 11
0 17 5 14 10 -4 6 -10 8 -14 5 -5 -2 -6 7 -3 20 2 15 0 25 -7 25 -6 0 -12 -6
-13 -12 0 -7 -2 -17 -3 -23 -2 -5 -3 -14 -4 -20 -1 -5 -7 1 -12 14 -6 16 -6
28 2 37 6 8 9 21 5 29 -3 8 -1 15 3 15 5 0 11 -7 15 -15 6 -17 15 -19 36 -5 9
6 11 13 5 18 -13 9 -35 72 -35 100 0 13 6 22 15 22 13 0 14 4 3 23 -7 12 -11
28 -9 36 1 7 -2 10 -7 7 -6 -4 -10 11 -9 36 1 25 7 43 16 46 8 3 11 0 7 -6 -3
-6 -2 -13 4 -17 17 -10 11 18 -10 45 -14 18 -16 28 -8 38 6 7 7 12 2 11 -29
-5 -52 3 -57 21 -3 11 -1 23 5 26 6 4 6 10 -1 17 -17 17 -13 34 8 40 13 3 21
-1 24 -12 3 -14 5 -13 12 3 6 13 4 21 -3 24 -16 5 -15 22 1 22 8 0 28 7 46 16
17 9 39 13 47 10 8 -3 13 -2 10 3 -3 5 12 8 34 7 22 0 40 -4 40 -8z m1116
-315 c-10 -10 -19 5 -10 18 6 11 8 11 12 0 2 -7 1 -15 -2 -18z m82 -8 c-3 -3
-9 2 -12 12 -6 14 -5 15 5 6 7 -7 10 -15 7 -18z m-951 -1 c-3 -3 -12 -4 -19
-1 -8 3 -5 6 6 6 11 1 17 -2 13 -5z m845 -104 c-14 -23 -22 -28 -28 -19 -11
18 -5 91 9 107 8 11 14 6 24 -21 13 -31 12 -38 -5 -67z m31 80 c-3 -11 -7 -20
-9 -20 -2 0 -4 9 -4 20 0 11 4 20 9 20 5 0 7 -9 4 -20z m54 -22 c-3 -8 -6 -5
-6 6 -1 11 2 17 5 13 3 -3 4 -12 1 -19z m20 -10 c-3 -8 -6 -5 -6 6 -1 11 2 17
5 13 3 -3 4 -12 1 -19z m-24 -34 c-4 -10 -9 -12 -15 -6 -12 12 -1 35 12 27 5
-3 6 -13 3 -21z m-1339 -70 c9 -24 2 -26 -12 -4 -7 11 -8 20 -3 20 5 0 12 -7
15 -16z m506 -27 c0 -5 8 -7 19 -4 10 2 27 0 37 -6 17 -10 15 -12 -18 -17 -39
-7 -138 9 -138 21 0 10 27 16 68 15 17 0 32 -4 32 -9z m315 -27 c3 -6 -1 -7
-9 -4 -18 7 -21 14 -7 14 6 0 13 -4 16 -10z m-170 -27 c6 -17 -14 -16 -45 2
l-25 14 32 -2 c18 -1 35 -8 38 -14z m-338 -64 c-17 -10 -50 -1 -42 11 2 4 16
5 31 2 21 -4 23 -7 11 -13z m219 8 c15 -15 -25 -17 -57 -3 l-34 14 42 -2 c23
-1 45 -5 49 -9z m-186 -77 c29 -16 43 -46 30 -69 -7 -13 -7 -22 0 -26 5 -3 10
0 10 8 0 31 82 32 94 2 3 -8 13 -15 21 -15 10 0 13 5 9 12 -4 7 -3 8 4 4 16
-10 15 -22 -4 -40 -20 -21 -34 -20 -34 1 0 15 -1 15 -13 -2 -8 -10 -19 -15
-25 -11 -7 4 -12 1 -12 -8 0 -8 -5 -18 -10 -21 -6 -4 -10 -3 -9 2 1 4 1 16 0
27 -1 15 -4 16 -16 6 -10 -8 -19 -9 -27 -3 -7 6 -25 10 -41 9 -15 -1 -26 3
-24 9 2 5 11 9 21 7 9 -2 16 2 16 8 0 10 -14 14 -40 10 -12 -1 -13 1 -2 11 16
17 15 27 -4 31 -14 3 -13 7 6 31 24 31 24 31 50 17z m439 -164 c9 -10 8 -15
-3 -19 -10 -4 -14 0 -13 14 2 23 1 23 16 5z m284 -16 c3 -11 1 -20 -4 -20 -5
0 -9 9 -9 20 0 11 2 20 4 20 2 0 6 -9 9 -20z m-927 -231 c9 -15 -23 -10 -35 5
-10 12 -8 13 9 9 11 -3 23 -9 26 -14z"/>
<path d="M2435 2770 c3 -5 10 -10 16 -10 5 0 9 5 9 10 0 6 -7 10 -16 10 -8 0
-12 -4 -9 -10z"/>
<path d="M1748 2553 c7 -3 16 -2 19 1 4 3 -2 6 -13 5 -11 0 -14 -3 -6 -6z"/>
<path d="M2136 1952 c0 -16 4 -34 8 -41 4 -6 3 -18 -3 -25 -9 -10 -8 -15 5
-20 9 -3 14 -13 10 -21 -3 -8 -1 -17 4 -20 6 -4 10 -1 10 6 0 8 7 6 19 -6 20
-17 20 -16 9 21 -5 21 -18 44 -27 51 -13 10 -14 12 -1 13 12 0 11 3 -2 11 -10
5 -18 21 -18 34 0 14 -3 25 -7 25 -5 0 -8 -13 -7 -28z"/>
<path d="M2285 1710 c-3 -5 -1 -10 4 -10 6 0 11 5 11 10 0 6 -2 10 -4 10 -3 0
-8 -4 -11 -10z"/>
<path d="M2622 1650 c0 -14 2 -19 5 -12 2 6 2 18 0 25 -3 6 -5 1 -5 -13z"/>
<path d="M2190 1350 c0 -5 5 -10 10 -10 6 0 10 5 10 10 0 6 -4 10 -10 10 -5 0
-10 -4 -10 -10z"/>
<path d="M1588 1603 c7 -3 16 -2 19 1 4 3 -2 6 -13 5 -11 0 -14 -3 -6 -6z"/>
<path d="M3040 2621 c0 -5 5 -13 10 -16 6 -3 10 -2 10 4 0 5 -4 13 -10 16 -5
3 -10 2 -10 -4z"/>
<path d="M3052 2565 c0 -16 2 -22 5 -12 2 9 2 23 0 30 -3 6 -5 -1 -5 -18z"/>
<path d="M1067 2439 c7 -7 15 -10 18 -7 3 3 -2 9 -12 12 -14 6 -15 5 -6 -5z"/>
<path d="M1552 965 c-11 -13 -9 -15 8 -15 11 0 20 7 20 15 0 19 -11 19 -28 0z"/>
<path d="M1745 960 c3 -5 14 -10 23 -10 15 0 15 2 2 10 -20 13 -33 13 -25 0z"/>
<path d="M1798 943 c7 -3 16 -2 19 1 4 3 -2 6 -13 5 -11 0 -14 -3 -6 -6z"/>
<path d="M1520 914 c0 -8 5 -12 10 -9 6 4 8 11 5 16 -9 14 -15 11 -15 -7z"/>
<path d="M1470 747 c0 -3 15 -10 32 -16 18 -6 28 -7 23 -2 -12 10 -55 25 -55
18z"/>
</g>
</svg>
